<svg width="60" height="60" viewBox="0 0 60 60" fill="none" xmlns="http://www.w3.org/2000/svg">
    <path d="M37.9396 20.4985C33.3055 21.1414 30.3272 23.5203 29.1503 27.892C28.8363 29.0582 28.9124 30.3392 28.8797 31.5694C28.8386 33.1161 28.8698 34.6647 28.8698 36.3661C25.2164 36.3661 21.8005 36.3661 18.0432 36.3661C19.431 33.5539 21.1804 31.1038 22.7065 28.5347C24.2414 25.9507 25.8639 23.4189 27.7267 20.415C18.7604 20.415 10.3526 20.415 1.88672 20.415C4.7128 8.03732 20.2723 -1.61673 33.5159 0.226331C50.1434 2.54029 61.1586 16.8404 59.8992 32.3976C58.4527 50.2668 43.3938 59.6964 32.6363 59.8339C32.1448 58.1255 32.0275 42.7834 32.5366 39.6769C34.5094 39.6769 36.5407 39.7107 38.5707 39.67C43.1508 39.578 46.731 36.663 47.7921 32.2084C49.0016 27.13 45.6733 21.8392 40.5743 20.7742C39.7751 20.6073 38.9494 20.5679 37.9396 20.4985Z"
          fill="#480086"/>
    <path d="M28.8762 42.6511C28.8762 48.4781 28.8762 54.0676 28.8762 60.0016C20.0062 59.74 13.0175 56.1375 7.36308 49.8012C0.649139 42.2777 -1.35809 31.5088 0.871746 23.9327C7.63115 23.9327 14.4265 23.9327 21.5813 23.9327C18.6377 29.2693 15.2735 34.1071 12.1394 39.5852C17.7561 39.8114 23.1161 39.5648 28.7503 39.7397C28.7946 40.6797 28.8354 41.5465 28.8762 42.6511Z"
          fill="#480086"/>
</svg>
